<?xml version="1.0"?>
<svg xmlns="http://www.w3.org/2000/svg" id="Layer_1" data-name="Layer 1" viewBox="0 0 512 512" width="512" height="512"><title>adress map call</title><path d="M368.5,364.207l-.09-.09c-2.794-3.035-8.568-7.993-16.449-7.993-5.808,0-11.666,2.789-16.942,8.064L306.26,392.95c-1.106,1.107-4.045,4.045-8.54,4.045a12.241,12.241,0,0,1-5.549-1.422l-.1-.06c-.229-.144-.461-.284-.692-.41-2.63-1.619-5.55-3.079-8.658-4.632a109.551,109.551,0,0,1-9.8-5.329c-26.43-16.714-50.383-38.52-73.228-66.662-.066-.081-.134-.161-.2-.238-12.376-15.741-20.43-28.862-26.077-42.483l-.17-.509c-1.49-4.74-1.516-8.572,2.908-13,.068-.068.134-.138.2-.208l.055-.052c7.2-6.46,13.715-12.94,21.265-20.67,1.656-1.6,3.282-3.246,4.856-4.838q1.186-1.2,2.388-2.406c11.3-11.3,11.3-23.252,0-34.557L182.02,176.632q-2.019-2.082-4.027-4.111t-3.96-4.044c-5.581-5.764-10.319-10.558-15.278-15.2l-.179-.178c-5-5-10.714-7.645-16.522-7.645-5.755,0-11.595,2.627-16.889,7.6-.046.044-.092.088-.136.133L96.351,181.864a44.429,44.429,0,0,0-13.342,28.729c-1.351,16.477,1.665,33.512,9.772,55.219,12.938,34.959,32.5,67.556,61.578,102.6A379.452,379.452,0,0,0,280.5,467.193c17.888,8.555,41.76,18.588,67.786,20.252,1.461.1,2.952.1,4.267.1,14.615,0,26.392-5,36-15.272.066-.071.129-.142.191-.215a217.558,217.558,0,0,1,15.85-16.411l1.887-1.837c2.957-2.875,5.751-5.591,8.544-8.6,10.782-11.236,10.7-23.883-.2-34.684ZM142.054,157.458c3.229,0,6.152,2.245,8.042,4.136l.253.252c.046.046.092.091.14.134,4.8,4.49,9.44,9.181,14.924,14.845q1.987,2.051,4.029,4.114c1.314,1.335,2.638,2.68,4.027,4.113l22.959,22.957c6.574,6.574,6.574,11.012,0,17.586q-1.23,1.228-2.437,2.456l-.248.25-63.429-63.43,3.13-3.13C136.45,158.938,139.426,157.458,142.054,157.458ZM379.7,464.174c-7.4,7.861-15.773,11.369-27.144,11.369-1.183,0-2.407,0-3.485-.071-23.988-1.535-46.478-11.016-63.365-19.092a367.459,367.459,0,0,1-122.126-95.649c-28.168-33.95-47.088-65.435-59.548-99.1-7.465-19.986-10.259-35.425-9.061-50.035a32.437,32.437,0,0,1,9.87-21.245l16.992-16.993,63.454,63.454c-5.85,5.923-11.2,11.15-16.959,16.312-.014.013-.028.025-.042.039a6.842,6.842,0,0,0-.94.937c-10.082,10.381-6.66,21.221-5.528,24.809l.032.1.252.757c.044.131.092.26.144.386,6.117,14.818,14.751,28.926,28,45.744q.144.183.3.354c23.63,29.072,48.482,51.658,75.96,69.036a119.6,119.6,0,0,0,10.874,5.934c2.9,1.45,5.64,2.82,7.845,4.188.125.077.252.151.382.219l.11.068c.329.2.661.4,1,.571A24.18,24.18,0,0,0,297.72,409c6.281,0,12.009-2.544,17.026-7.56l17.581-17.581,63.537,63.537A225.548,225.548,0,0,0,379.7,464.174Zm26.893-27.5a6.214,6.214,0,0,0-.686.728c-.493.527-1.009,1.034-1.51,1.551l-63.581-63.581,2.695-2.7c1.7-1.7,5.058-4.55,8.457-4.55,3.487,0,6.53,2.924,7.676,4.182.062.067.126.134.191.2l46.527,46.528C412.615,425.229,412.693,430.2,406.589,436.671Z" style="fill:#0635c9"/><path d="M323.3,24.457a106,106,0,1,0,106,106A106.121,106.121,0,0,0,323.3,24.457Zm0,200a94,94,0,1,1,94-94A94.106,94.106,0,0,1,323.3,224.457Z" style="fill:#1ae5be"/><path d="M369.579,68.646a65.352,65.352,0,0,0-92.561,0A69.315,69.315,0,0,0,257,112.971a65.511,65.511,0,0,0,3.951,26.969A70.269,70.269,0,0,0,276.029,163.9l42.895,45.69a6,6,0,0,0,8.748,0l42.895-45.69a70.254,70.254,0,0,0,15.077-23.956,65.516,65.516,0,0,0,3.951-26.969A69.319,69.319,0,0,0,369.579,68.646Zm4.792,67.181a58.386,58.386,0,0,1-12.552,19.857L323.3,196.714l-38.52-41.03a58.374,58.374,0,0,1-12.553-19.857,53.605,53.605,0,0,1-3.251-22.056,57.319,57.319,0,0,1,16.544-36.654,53.349,53.349,0,0,1,75.56,0,57.314,57.314,0,0,1,16.544,36.654A53.593,53.593,0,0,1,374.371,135.827Z" style="fill:#1ae5be"/><path d="M323.3,73.6c-21.686,0-39.328,18.044-39.328,40.223s17.642,40.224,39.328,40.224S362.626,136,362.626,113.823,344.984,73.6,323.3,73.6Zm0,68.447c-15.069,0-27.328-12.661-27.328-28.224S308.229,85.6,323.3,85.6s27.328,12.661,27.328,28.223S338.367,142.047,323.3,142.047Z" style="fill:#1ae5be"/><path d="M317.72,409c6.281,0,12.009-2.544,17.026-7.56l7.581-7.581-10-10-17.581,17.581a27.332,27.332,0,0,1-7.151,5.239A23.837,23.837,0,0,0,317.72,409Z" style="fill:#d4e1f4"/><path d="M305.7,456.38a367.459,367.459,0,0,1-122.126-95.649c-28.168-33.95-47.088-65.435-59.548-99.1-7.465-19.986-10.259-35.425-9.061-50.035a32.437,32.437,0,0,1,9.87-21.245l6.992-6.993-10-10-16.992,16.993a32.437,32.437,0,0,0-9.87,21.245c-1.2,14.61,1.6,30.049,9.061,50.035,12.46,33.667,31.38,65.152,59.548,99.1A367.459,367.459,0,0,0,285.7,456.38c16.887,8.076,39.377,17.557,63.365,19.092,1.078.071,2.3.071,3.485.071a43.886,43.886,0,0,0,8.845-.846C340.315,471.9,320.775,463.588,305.7,456.38Z" style="fill:#d4e1f4"/></svg>
