<?xml version="1.0"?>
<svg xmlns="http://www.w3.org/2000/svg" id="Layer_1" data-name="Layer 1" viewBox="0 0 512 512" width="512" height="512"><title>email location map</title><path d="M34.854,413.007a6.025,6.025,0,0,0,.962.763A45.86,45.86,0,0,0,69,427.963H349A45.858,45.858,0,0,0,382.158,413.8a6.009,6.009,0,0,0,.978-.775,5.916,5.916,0,0,0,1.093-1.522A45.787,45.787,0,0,0,395,381.963v-59a6,6,0,0,0-12,0v59a33.793,33.793,0,0,1-4.831,17.447l-85.054-86.538a6,6,0,1,0-8.558,8.411l85.7,87.191A33.829,33.829,0,0,1,349,415.963H69a33.829,33.829,0,0,1-21.293-7.52l85.228-87.171a6,6,0,0,0-8.581-8.389L39.8,399.362a33.788,33.788,0,0,1-4.8-17.4V203.775L181.907,328.169a41.866,41.866,0,0,0,54.307-.022l85.163-72.228a6,6,0,1,0-7.762-9.151L228.452,319a29.905,29.905,0,0,1-38.791.015L35.545,188.513A34.047,34.047,0,0,1,69,160.535H299a6,6,0,0,0,0-12H69a46.06,46.06,0,0,0-45.625,40.224,6.009,6.009,0,0,0-.289,3.07c-.052.9-.086,1.8-.086,2.706V381.963a45.787,45.787,0,0,0,10.751,29.513A5.952,5.952,0,0,0,34.854,413.007Z" style="fill:#0635c9"/><path d="M388,132.521c-25.563,0-46.36,21.284-46.36,47.445s20.8,47.445,46.36,47.445,46.36-21.284,46.36-47.445S413.563,132.521,388,132.521Zm0,82.89c-18.946,0-34.36-15.9-34.36-35.445s15.414-35.445,34.36-35.445,34.36,15.9,34.36,35.445S406.946,215.411,388,215.411Z" style="fill:#1ae5be"/><path d="M458.316,113.227a99.287,99.287,0,0,0-140.632,0,105.511,105.511,0,0,0-30.471,67.479,99.579,99.579,0,0,0,6.01,40.988A107.052,107.052,0,0,0,316.2,258.178L383.626,330a6,6,0,0,0,8.748,0L459.8,258.178a107.052,107.052,0,0,0,22.978-36.484,99.579,99.579,0,0,0,6.01-40.988A105.511,105.511,0,0,0,458.316,113.227ZM471.5,217.581a95.137,95.137,0,0,1-20.453,32.383L388,317.124l-63.051-67.16A95.137,95.137,0,0,1,304.5,217.581a87.656,87.656,0,0,1-5.31-36.075,93.522,93.522,0,0,1,27-59.809,87.289,87.289,0,0,1,123.632,0,93.522,93.522,0,0,1,27,59.809A87.656,87.656,0,0,1,471.5,217.581Z" style="fill:#1ae5be"/><path d="M75.545,188.513A34.047,34.047,0,0,1,109,160.535H69a34.047,34.047,0,0,0-33.455,27.978l154.116,130.5A29.905,29.905,0,0,0,228.452,319l.595-.5Z" style="fill:#d4e1f4"/><path d="M75,237.646,35,203.775V381.963a33.788,33.788,0,0,0,4.8,17.4l35.2-36Z" style="fill:#d4e1f4"/><path d="M354.949,249.964A95.137,95.137,0,0,1,334.5,217.581a87.656,87.656,0,0,1-5.31-36.075,94.05,94.05,0,0,1,4.6-23.358,5.962,5.962,0,0,0,1.208-3.41A93.123,93.123,0,0,1,356.184,121.7,86.559,86.559,0,0,1,403,97.338a88.326,88.326,0,0,0-15-1.3,86.669,86.669,0,0,0-61.816,25.66,93.123,93.123,0,0,0-21.194,33.041,5.962,5.962,0,0,1-1.208,3.41,94.05,94.05,0,0,0-4.6,23.358,87.656,87.656,0,0,0,5.31,36.075,95.137,95.137,0,0,0,20.453,32.383l63,67.1c.043-.008.086-.013.129-.02L403,301.146Z" style="fill:#d4e1f4"/></svg>
