<?xml version="1.0"?>
<svg xmlns="http://www.w3.org/2000/svg" id="Layer_1" data-name="Layer 1" viewBox="0 0 512 512" width="512" height="512"><title>email map  location</title><path d="M69.784,436.077a32.4,32.4,0,0,0,22.732,9.3H419.484A32.552,32.552,0,0,0,452,412.859V227.405c0-.039-.007-.077-.008-.116,0-.19-.016-.379-.038-.567-.007-.063-.013-.126-.021-.188a6.037,6.037,0,0,0-.142-.693c-.009-.035-.022-.068-.032-.1a5.95,5.95,0,0,0-.2-.581c-.024-.058-.048-.114-.073-.171a6.14,6.14,0,0,0-.276-.55c-.017-.03-.031-.06-.049-.089a5.872,5.872,0,0,0-.413-.609c-.02-.027-.044-.052-.065-.079a5.872,5.872,0,0,0-.409-.458c-.047-.049-.1-.1-.145-.143-.134-.126-.274-.247-.422-.363-.049-.038-.1-.079-.145-.116-.02-.014-.038-.031-.058-.046l-63.095-45.367V85.1a27.256,27.256,0,0,0-27.224-27.225H152.816A27.256,27.256,0,0,0,125.592,85.1v84.284L62.136,222.815v0A5.987,5.987,0,0,0,60,227.405V412.859a32.392,32.392,0,0,0,8.857,22.271A6.028,6.028,0,0,0,69.784,436.077ZM210.02,323.019,74.751,423.077A20.373,20.373,0,0,1,72,412.859v-175ZM92.516,433.374a20.36,20.36,0,0,1-8.792-2.007l137.3-101.56,17.922,11.059a32.354,32.354,0,0,0,34.118.02l17.626-10.848L428.033,431.484a20.363,20.363,0,0,1-8.549,1.89ZM440,238.143V412.859a20.365,20.365,0,0,1-2.876,10.422L301.7,323.257Zm-4.817-11.126-48.775,30.018V191.947ZM152.816,69.875H359.184A15.242,15.242,0,0,1,374.408,85.1v93.334a6.011,6.011,0,0,0,0,3.285v82.7L266.771,330.666a20.413,20.413,0,0,1-21.527-.012L137.592,264.227V85.1A15.242,15.242,0,0,1,152.816,69.875ZM125.592,256.822,76.416,226.478l49.176-41.407Z" style="fill:#0635c9"/><path d="M190.5,102.918h91a6,6,0,0,0,0-12h-91a6,6,0,0,0,0,12Z" style="fill:#1ae5be"/><path d="M294.5,96.918a6,6,0,0,0,6,6h21a6,6,0,0,0,0-12h-21A6,6,0,0,0,294.5,96.918Z" style="fill:#1ae5be"/><path d="M190.5,132.918h31a6,6,0,0,0,0-12h-31a6,6,0,0,0,0,12Z" style="fill:#1ae5be"/><path d="M327.5,126.918a6,6,0,0,0-6-6h-81a6,6,0,0,0,0,12h81A6,6,0,0,0,327.5,126.918Z" style="fill:#1ae5be"/><path d="M256,145.537a66.562,66.562,0,0,0-46.978,19.121A68.571,68.571,0,0,0,188.641,208.9a64.249,64.249,0,0,0,4.028,26.946,69.922,69.922,0,0,0,15.348,23.9l43.65,45.562a6,6,0,0,0,8.666,0l43.649-45.562a69.916,69.916,0,0,0,15.349-23.9,64.256,64.256,0,0,0,4.028-26.947,68.571,68.571,0,0,0-20.381-44.246A66.562,66.562,0,0,0,256,145.537Zm52.085,86.127a58,58,0,0,1-12.768,19.788L256,292.492l-39.317-41.04a57.993,57.993,0,0,1-12.768-19.789,52.339,52.339,0,0,1-3.3-21.942,56.578,56.578,0,0,1,16.824-36.507,55.268,55.268,0,0,1,77.126,0,56.578,56.578,0,0,1,16.824,36.507A52.346,52.346,0,0,1,308.085,231.664Z" style="fill:#1ae5be"/><path d="M256,168.878a39.712,39.712,0,1,0,39.5,39.711A39.652,39.652,0,0,0,256,168.878Zm0,67.422a27.712,27.712,0,1,1,27.5-27.711A27.638,27.638,0,0,1,256,236.3Z" style="fill:#1ae5be"/><path d="M102,256.365,72,237.854v175a20.373,20.373,0,0,0,2.751,10.218L102,402.921Z" style="fill:#d4e1f4"/><path d="M237.377,339.9l-16.356-10.093-137.3,101.56a20.36,20.36,0,0,0,8.792,2.007h30a20.36,20.36,0,0,1-8.792-2.007Z" style="fill:#d4e1f4"/><path d="M167.592,264.227V85.1a15.242,15.242,0,0,1,15.224-15.225h-30A15.242,15.242,0,0,0,137.592,85.1V264.227l107.652,66.427a20.413,20.413,0,0,0,21.527.012l4.252-2.617Z" style="fill:#d4e1f4"/><polygon points="106.416 226.478 125.592 210.332 125.592 185.071 76.416 226.478 125.592 256.822 125.592 238.311 106.416 226.478" style="fill:#d4e1f4"/></svg>
