<svg id="Layer_1" enable-background="new 0 0 512 512" height="512" viewBox="0 0 512 512" width="512" xmlns="http://www.w3.org/2000/svg"><g><g><g><g><path d="m363.5 502v-138.255c0-28.174-19.603-52.554-47.121-58.601l-73.673-16.192c-9.172-2.016-15.706-10.142-15.706-19.534v-60.918h-83v60.918c0 9.391-6.534 17.518-15.707 19.534l-73.673 16.192c-27.517 6.048-47.12 30.427-47.12 58.601v138.255c0 5.523 4.477 10 10 10h336c5.523 0 10-4.477 10-10z" fill="#dd8793"/></g><path d="m17.5 512h68.056v-52.5h-78.056v42.5c0 5.523 4.477 10 10 10z" fill="#f2ccbc"/><path d="m125.129 289.647c13.889 18.143 35.758 29.853 60.371 29.853s46.482-11.71 60.371-29.853l-3.164-.695c-9.173-2.016-15.707-10.142-15.707-19.534v-60.918h-83v60.918c0 9.391-6.534 17.518-15.707 19.534z" fill="#f2ccbc"/><g><g><g><path d="m273.393 127.494h-175.786v-71.625c0-26.714 21.656-48.369 48.369-48.369h79.048c26.714 0 48.369 21.656 48.369 48.369z" fill="#cf9772"/><path d="m225.024 7.5h-30c26.714 0 48.369 21.656 48.369 48.369v71.625h30v-71.625c0-26.713-21.656-48.369-48.369-48.369z" fill="#c88556"/><path d="m273.393 117.013c-7.522-2.158-19.898-6.74-32.384-16.789-10.958-8.818-17.848-18.504-21.979-25.636-1.255-2.167-4.174-2.658-6.062-1.012-8.315 7.248-18.756 14.992-31.523 21.926-33.383 18.13-65.238 21.255-83.837 21.51v56.039c0 48.542 39.351 87.893 87.893 87.893 48.542 0 87.893-39.351 87.893-87.893v-56.038z" fill="#f2ccbc"/><path d="m243.393 117.013v56.039c.213 5.801.659 34.346-20.923 56.922-19.543 20.444-49.707 28.209-78.47 20.571 8.568 4.469 20.017 8.851 33.843 10.068 2.652.233 5.208.334 7.657.332 48.542 0 87.893-39.351 87.893-87.893v-56.039c-7.025-2.015-18.281-6.145-29.909-14.865z" fill="#ecad9a"/></g><path d="m284.189 158.504h-10.796v-41.491h10.796c11.457 0 20.745 9.288 20.745 20.745 0 11.458-9.288 20.746-20.745 20.746z" fill="#f2ccbc"/><path d="m86.811 158.504h10.796v-41.491h-10.796c-11.457 0-20.745 9.288-20.745 20.745 0 11.458 9.288 20.746 20.745 20.746z" fill="#ecad9a"/></g></g></g><g><g><path d="m201.5 474.5h293c5.523 0 10 4.477 10 10v10c0 5.523-4.477 10-10 10h-293c-5.523 0-10-4.477-10-10v-10c0-5.523 4.477-10 10-10z" fill="#455f7e"/><path d="m494.5 474.5h-30c5.523 0 10 4.477 10 10v10c0 5.523-4.477 10-10 10h30c5.523 0 10-4.477 10-10v-10c0-5.523-4.477-10-10-10z" fill="#405972"/><g><path d="m474.5 474.5h-253c-16.569 0-30-13.431-30-30v-165c0-16.569 13.431-30 30-30h253c16.569 0 30 13.431 30 30v165c0 16.569-13.431 30-30 30z" fill="#506d90"/></g><path d="m474.5 249.5h-30c16.569 0 30 13.431 30 30v165c0 16.569-13.431 30-30 30h30c16.569 0 30-13.431 30-30v-165c0-16.569-13.431-30-30-30z" fill="#455f7e"/></g></g><circle cx="348" cy="362" fill="#fff" r="32.5"/><path d="m348 329.5c-5.412 0-10.511 1.331-15 3.671 10.397 5.421 17.5 16.292 17.5 28.829s-7.103 23.408-17.5 28.829c4.489 2.34 9.588 3.671 15 3.671 17.949 0 32.5-14.551 32.5-32.5s-14.551-32.5-32.5-32.5z" fill="#efeaf4"/></g><path d="m504.5 387.374c4.142 0 7.5-3.358 7.5-7.5v-100.374c0-20.678-16.822-37.5-37.5-37.5h-223.094c18.918-18.101 29.497-42.761 29.484-68.95v-7.046h3.299c15.574 0 28.245-12.671 28.245-28.245 0-15.575-12.671-28.246-28.245-28.246h-3.296v-53.644c0-30.806-25.063-55.869-55.869-55.869h-79.048c-30.806 0-55.869 25.063-55.869 55.869v53.644h-3.296c-15.574 0-28.245 12.671-28.245 28.246 0 15.574 12.671 28.245 28.245 28.245h3.299v7.046c0 34.698 18.621 65.125 46.39 81.821v14.549c0 5.826-4.127 10.958-9.82 12.205l-73.67 16.19c-14.974 3.292-28.51 11.685-38.115 23.632s-14.895 26.97-14.895 42.303v140.75c0 4.142 3.358 7.5 7.5 7.5s7.5-3.358 7.5-7.5v-37.5h63.056v37.5c0 4.142 3.358 7.5 7.5 7.5s7.5-3.358 7.5-7.5v-61.873c0-4.142-3.358-7.5-7.5-7.5s-7.5 3.358-7.5 7.5v9.373h-63.056v-88.25c0-24.464 17.34-46.033 41.23-51.285l65.991-14.503c15.577 18.136 37.775 28.598 61.779 29.017v117.521c0 9.402 3.486 17.999 9.222 24.588-5.485 2.958-9.222 8.756-9.222 15.412v10c0 9.649 7.851 17.5 17.5 17.5h293c9.649 0 17.5-7.851 17.5-17.5v-10c0-6.656-3.737-12.454-9.222-15.412 5.736-6.589 9.222-15.186 9.222-24.588v-29.626c0-4.142-3.358-7.5-7.5-7.5s-7.5 3.358-7.5 7.5v29.626c0 12.407-10.093 22.5-22.5 22.5h-253c-12.407 0-22.5-10.093-22.5-22.5v-165c0-12.407 10.093-22.5 22.5-22.5h253c12.407 0 22.5 10.093 22.5 22.5v100.374c0 4.142 3.358 7.5 7.5 7.5zm-223.607-262.861h3.296c7.303 0 13.245 5.942 13.245 13.246 0 7.303-5.942 13.245-13.245 13.245h-3.296zm-190.786 26.491h-3.296c-7.303 0-13.245-5.942-13.245-13.245 0-7.304 5.942-13.246 13.245-13.246h3.296zm93.893 128.496v32.464c-17.361-.371-33.557-7.139-45.875-18.994 8.072-4.883 13.375-13.766 13.375-23.55v-7.239c10.567 4.045 22.028 6.269 34 6.269.055 0 .109-.003.164-.003-1.08 3.496-1.664 7.207-1.664 11.053zm17.5 202.5h293c1.378 0 2.5 1.122 2.5 2.5v10c0 1.378-1.122 2.5-2.5 2.5h-293c-1.378 0-2.5-1.122-2.5-2.5v-10c0-1.378 1.122-2.5 2.5-2.5zm25.344-240h-5.344c-10.275 0-19.595 4.156-26.375 10.873-3.19.378-6.416.577-9.625.577-44.327 0-80.39-36.067-80.39-80.4v-48.779c11.051-.564 22.001-2.059 32.647-4.46 4.041-.912 6.577-4.926 5.666-8.967-.911-4.04-4.925-6.575-8.967-5.666-9.568 2.158-19.41 3.508-29.349 4.057v-53.366c0-22.535 18.334-40.869 40.869-40.869h79.048c22.535 0 40.869 18.334 40.869 40.869v50.523c-7.231-3.06-14.091-7.115-20.185-12.018-8.134-6.539-14.927-14.46-20.192-23.55-1.731-2.981-4.671-5.013-8.067-5.573-3.392-.559-6.82.417-9.402 2.671-9.332 8.12-19.488 15.181-30.187 20.987-3.789 2.058-7.712 3.995-11.662 5.755-3.783 1.687-5.482 6.121-3.796 9.904 1.687 3.782 6.121 5.482 9.904 3.796 4.304-1.919 8.582-4.03 12.71-6.273 10.452-5.672 20.424-12.439 29.702-20.154 5.85 9.198 13.099 17.301 21.589 24.125 8.789 7.072 18.923 12.689 29.582 16.427v50.559c0 21.476-8.361 41.665-23.543 56.847-4.671 4.674-9.882 8.733-15.502 12.105zm1.063-106.938c-4.142 0-7.5 3.358-7.5 7.5v16.963c0 4.142 3.358 7.5 7.5 7.5s7.5-3.358 7.5-7.5v-16.963c0-4.143-3.358-7.5-7.5-7.5zm80.093 226.938c0 22.056 17.944 40 40 40s40-17.944 40-40-17.944-40-40-40-40 17.944-40 40zm65 0c0 13.785-11.215 25-25 25s-25-11.215-25-25 11.215-25 25-25 25 11.215 25 25zm-229.907-226.938c-4.142 0-7.5 3.358-7.5 7.5v16.963c0 4.142 3.358 7.5 7.5 7.5s7.5-3.358 7.5-7.5v-16.963c0-4.143-3.358-7.5-7.5-7.5zm55.763 76.175c-2.913 1.598-7.63 3.495-13.646 3.426-5.746-.061-10.277-1.897-13.066-3.426-3.633-1.994-8.191-.663-10.182 2.969-1.992 3.632-.663 8.19 2.969 10.182 4.292 2.354 11.268 5.181 20.122 5.274 8.931.094 16.605-2.855 21.016-5.274 3.632-1.992 4.961-6.55 2.969-10.182s-6.55-4.962-10.182-2.969z"/></g></svg>